# xmcd
#
# Track frame offsets:
#	150
#	15073
#	27326
#	40593
#	53587
#	64667
#	76659
#	90458
#	102066
#	114699
#	122592
#	138040
#
# Disc length: 2060 seconds
#
# Revision: 1
# Processed by: cddbd v1.5.1PL0 Copyright (c) Steve Scherf et al.
# Submitted via: audiograbber 1.80
#
DISCID=7b080a0c
DTITLE=vários - Viola Brasileira
DYEAR=1900
DGENRE=
TTITLE0=palmeira e fred willians - baião da serra grande
TTITLE1=ted vieira e luizinho - o menino da porteira
TTITLE2=serafim colombo - soca pilão
TTITLE3=raul torres - mula preta
TTITLE4=jesus ramos - o tropeiro
TTITLE5=praense e compadre lima - espinho na cama
TTITLE6=lorival dos santos e moacyr dos santos - cohilou o cachimbo cae
TTITLE7=joubert de carvalho e olegário mariano - de papo pro á
TTITLE8=rené bitencurt - sertaneja
TTITLE9=tonico e tinoco - baianinha
TTITLE10=juquinha e dino franco - paineira velha
TTITLE11=serafim colombo e luiz bonan - poeira
EXTD=
EXTT0=
EXTT1=
EXTT2=
EXTT3=
EXTT4=
EXTT5=
EXTT6=
EXTT7=
EXTT8=
EXTT9=
EXTT10=
EXTT11=
PLAYORDER=
